<?xml version="1.0" encoding="UTF-8" standalone="no"?>
<svg width="1920" height="800" viewBox="0 0 1920 800" xmlns="http://www.w3.org/2000/svg">
  <!-- Background gradient -->
  <rect width="1920" height="800" fill="url(#bg-gradient)" />
  
  <!-- Geometric patterns and grid -->
  <g opacity="0.15">
    <!-- Left side connected grid -->
    <path d="M200 300 L600 300 L600 500 L200 500 Z" fill="none" stroke="#ffffff" stroke-width="1.5" />
    <path d="M250 350 L550 350 L550 450 L250 450 Z" fill="none" stroke="#ffffff" stroke-width="1.5" />
    <path d="M300 400 L500 400" stroke="#ffffff" stroke-width="1.5" />
    <path d="M400 350 L400 450" stroke="#ffffff" stroke-width="1.5" />
    
    <!-- Right side grid elements -->
    <path d="M1300 200 L1700 200 L1700 600 L1300 600 Z" fill="none" stroke="#ffffff" stroke-width="1.5" />
    <path d="M1350 250 L1650 250 L1650 550 L1350 550 Z" fill="none" stroke="#ffffff" stroke-width="1.5" />
    <path d="M1400 300 L1600 300 L1600 500 L1400 500 Z" fill="none" stroke="#ffffff" stroke-width="1.5" />
    <path d="M1450 350 L1550 350 L1550 450 L1450 450 Z" fill="none" stroke="#ffffff" stroke-width="1.5" />
    
    <!-- Connecting lines -->
    <path d="M600 400 L1300 400" stroke="#ffffff" stroke-width="1" stroke-dasharray="5,5" />
    <path d="M500 500 L900 700" stroke="#ffffff" stroke-width="1" stroke-dasharray="5,5" />
    <path d="M300 350 L700 150" stroke="#ffffff" stroke-width="1" stroke-dasharray="5,5" />
  </g>
  
  <!-- Floating modular elements -->
  <g opacity="0.3">
    <!-- Top left modules -->
    <rect x="150" y="150" width="40" height="40" fill="#ffffff" />
    <rect x="250" y="100" width="30" height="30" fill="#ffffff" />
    <rect x="350" y="180" width="25" height="25" fill="#ffffff" />
    
    <!-- Bottom right modules -->
    <rect x="1650" y="650" width="40" height="40" fill="#ffffff" />
    <rect x="1750" y="600" width="30" height="30" fill="#ffffff" />
    <rect x="1550" y="680" width="25" height="25" fill="#ffffff" />
  </g>
  
  <!-- Cyan accent highlights -->
  <g>
    <!-- Center nodes with accent -->
    <circle cx="600" cy="400" r="8" fill="#00ade0" />
    <circle cx="1300" cy="400" r="8" fill="#00ade0" />
    <circle cx="950" cy="400" r="12" fill="#00ade0" opacity="0.9" />
    
    <!-- Additional accent points -->
    <circle cx="500" cy="500" r="5" fill="#00ade0" />
    <circle cx="900" cy="700" r="5" fill="#00ade0" />
    <circle cx="300" cy="350" r="5" fill="#00ade0" />
    <circle cx="700" cy="150" r="5" fill="#00ade0" />
    
    <!-- Floating accent modules -->
    <rect x="800" y="300" width="50" height="50" fill="#00ade0" opacity="0.7" />
    <rect x="1100" y="450" width="35" height="35" fill="#00ade0" opacity="0.7" />
  </g>
  
  <!-- Subtle 3D layering -->
  <g opacity="0.1">
    <path d="M400 600 L600 500 L800 550 L600 650 Z" fill="#ffffff" />
    <path d="M1100 250 L1300 150 L1500 200 L1300 300 Z" fill="#ffffff" />
    <path d="M950 350 L1050 300 L1150 350 L1050 400 Z" fill="#ffffff" />
  </g>
  
  <!-- Background gradient definition -->
  <defs>
    <linearGradient id="bg-gradient" x1="0%" y1="0%" x2="0%" y2="100%">
      <stop offset="0%" stop-color="#2c2c34" />
      <stop offset="100%" stop-color="#1f1f28" />
    </linearGradient>
  </defs>
</svg>
